<svg width="92" height="92" viewBox="0 0 92 92" fill="none" xmlns="http://www.w3.org/2000/svg">
<g clip-path="url(#clip0_2002_12791)">
<mask id="path-1-outside-1_2002_12791" maskUnits="userSpaceOnUse" x="0" y="0" width="92" height="92" fill="black">
<rect fill="white" width="92" height="92"/>
<path d="M4 16C4 9.37258 9.37258 4 16 4H76C82.6274 4 88 9.37258 88 16V76C88 82.6274 82.6274 88 76 88H16C9.37258 88 4 82.6274 4 76V16Z"/>
</mask>
<path d="M4 16C4 9.37258 9.37258 4 16 4H76C82.6274 4 88 9.37258 88 16V76C88 82.6274 82.6274 88 76 88H16C9.37258 88 4 82.6274 4 76V16Z" fill="url(#paint0_linear_2002_12791)"/>
<g filter="url(#filter0_dddd_2002_12791)">
<path d="M46 48.1164C47.1572 48.1164 48.0953 47.1689 48.0953 46C48.0953 44.8312 47.1572 43.8836 46 43.8836C44.8429 43.8836 43.9048 44.8312 43.9048 46C43.9048 47.1689 44.8429 48.1164 46 48.1164Z" fill="#FAFAFA"/>
<path d="M46.0001 50.7619C51.786 50.7619 56.4763 48.6299 56.4763 46C56.4763 43.3701 51.786 41.2381 46.0001 41.2381C40.2143 41.2381 35.5239 43.3701 35.5239 46C35.5239 48.6299 40.2143 50.7619 46.0001 50.7619Z" stroke="#FAFAFA" stroke-width="1.5"/>
<path d="M41.9174 48.381C44.8104 53.4423 48.9834 56.4793 51.2382 55.1643C53.493 53.8493 52.9757 48.6804 50.0828 43.6191C47.1899 38.5578 43.0168 35.5208 40.762 36.8357C38.5072 38.1507 39.0245 43.3197 41.9174 48.381Z" stroke="#FAFAFA" stroke-width="1.5"/>
<path d="M41.9173 43.6191C39.0244 48.6804 38.5071 53.8493 40.7619 55.1643C43.0167 56.4793 47.1898 53.4423 50.0827 48.381C52.9756 43.3197 53.4929 38.1507 51.2381 36.8357C48.9833 35.5208 44.8102 38.5578 41.9173 43.6191Z" stroke="#FAFAFA" stroke-width="1.5"/>
</g>
</g>
<path d="M16 8H76V0H16V8ZM84 16V76H92V16H84ZM76 84H16V92H76V84ZM8 76V16H0V76H8ZM16 84C11.5817 84 8 80.4183 8 76H0C0 84.8366 7.16344 92 16 92V84ZM84 76C84 80.4183 80.4183 84 76 84V92C84.8366 92 92 84.8366 92 76H84ZM76 8C80.4183 8 84 11.5817 84 16H92C92 7.16345 84.8366 0 76 0V8ZM16 0C7.16345 0 0 7.16344 0 16H8C8 11.5817 11.5817 8 16 8V0Z" fill="#09090B" fill-opacity="0.2" mask="url(#path-1-outside-1_2002_12791)"/>
<defs>
<filter id="filter0_dddd_2002_12791" x="-30" y="-30" width="152" height="152" filterUnits="userSpaceOnUse" color-interpolation-filters="sRGB">
<feFlood flood-opacity="0" result="BackgroundImageFix"/>
<feColorMatrix in="SourceAlpha" type="matrix" values="0 0 0 0 0 0 0 0 0 0 0 0 0 0 0 0 0 0 127 0" result="hardAlpha"/>
<feOffset/>
<feGaussianBlur stdDeviation="32"/>
<feColorMatrix type="matrix" values="0 0 0 0 0.309804 0 0 0 0 0.27451 0 0 0 0 0.898039 0 0 0 1 0"/>
<feBlend mode="normal" in2="BackgroundImageFix" result="effect1_dropShadow_2002_12791"/>
<feColorMatrix in="SourceAlpha" type="matrix" values="0 0 0 0 0 0 0 0 0 0 0 0 0 0 0 0 0 0 127 0" result="hardAlpha"/>
<feOffset/>
<feGaussianBlur stdDeviation="24"/>
<feColorMatrix type="matrix" values="0 0 0 0 0.309804 0 0 0 0 0.27451 0 0 0 0 0.898039 0 0 0 1 0"/>
<feBlend mode="normal" in2="effect1_dropShadow_2002_12791" result="effect2_dropShadow_2002_12791"/>
<feColorMatrix in="SourceAlpha" type="matrix" values="0 0 0 0 0 0 0 0 0 0 0 0 0 0 0 0 0 0 127 0" result="hardAlpha"/>
<feOffset/>
<feGaussianBlur stdDeviation="16"/>
<feColorMatrix type="matrix" values="0 0 0 0 0.309804 0 0 0 0 0.27451 0 0 0 0 0.898039 0 0 0 1 0"/>
<feBlend mode="normal" in2="effect2_dropShadow_2002_12791" result="effect3_dropShadow_2002_12791"/>
<feColorMatrix in="SourceAlpha" type="matrix" values="0 0 0 0 0 0 0 0 0 0 0 0 0 0 0 0 0 0 127 0" result="hardAlpha"/>
<feOffset/>
<feGaussianBlur stdDeviation="4"/>
<feColorMatrix type="matrix" values="0 0 0 0 0.654902 0 0 0 0 0.545098 0 0 0 0 0.980392 0 0 0 0.8 0"/>
<feBlend mode="normal" in2="effect3_dropShadow_2002_12791" result="effect4_dropShadow_2002_12791"/>
<feBlend mode="normal" in="SourceGraphic" in2="effect4_dropShadow_2002_12791" result="shape"/>
</filter>
<linearGradient id="paint0_linear_2002_12791" x1="46" y1="88" x2="46" y2="4" gradientUnits="userSpaceOnUse">
<stop stop-color="white" stop-opacity="0"/>
<stop offset="1" stop-color="#FAFAFA" stop-opacity="0.05"/>
</linearGradient>
<clipPath id="clip0_2002_12791">
<path d="M4 16C4 9.37258 9.37258 4 16 4H76C82.6274 4 88 9.37258 88 16V76C88 82.6274 82.6274 88 76 88H16C9.37258 88 4 82.6274 4 76V16Z" fill="white"/>
</clipPath>
</defs>
</svg>
