<svg width="92" height="92" viewBox="0 0 92 92" fill="none" xmlns="http://www.w3.org/2000/svg">
<g clip-path="url(#clip0_2002_12805)">
<mask id="path-1-outside-1_2002_12805" maskUnits="userSpaceOnUse" x="0" y="0" width="92" height="92" fill="black">
<rect fill="white" width="92" height="92"/>
<path d="M4 16C4 9.37258 9.37258 4 16 4H76C82.6274 4 88 9.37258 88 16V76C88 82.6274 82.6274 88 76 88H16C9.37258 88 4 82.6274 4 76V16Z"/>
</mask>
<path d="M4 16C4 9.37258 9.37258 4 16 4H76C82.6274 4 88 9.37258 88 16V76C88 82.6274 82.6274 88 76 88H16C9.37258 88 4 82.6274 4 76V16Z" fill="url(#paint0_linear_2002_12805)"/>
<g filter="url(#filter0_dddd_2002_12805)">
<path fill-rule="evenodd" clip-rule="evenodd" d="M55 35C56.1046 35 57 35.8923 57 36.9969C57 42.6845 57 51.1774 57 55.0041C57 56.1086 56.1077 57 55.0031 57C49.3155 57 40.8226 57 36.9959 57C35.8914 57 35 56.108 35 55.0034C35.0001 49.2015 35 40.7932 35 36.995C35 35.8904 35.8954 35 37 35L55 35ZM47.2297 46.7043V44.9H39.4V46.7043H42.1953V54.7382H44.4206V46.7043H47.2297ZM48.1168 54.5261C48.4757 54.709 48.9001 54.8463 49.39 54.9378C49.8801 55.0292 50.3964 55.075 50.9393 55.075C51.4684 55.075 51.971 55.0247 52.4472 54.924C52.9234 54.8234 53.3409 54.6576 53.6997 54.4266C54.0585 54.1956 54.3427 53.8938 54.552 53.521C54.7613 53.1481 54.866 52.6873 54.866 52.1384C54.866 51.7405 54.8062 51.3918 54.6865 51.0922C54.567 50.7925 54.3944 50.5261 54.169 50.2928C53.9436 50.0595 53.6733 49.8503 53.3581 49.665C53.0429 49.4798 52.6876 49.3048 52.292 49.1402C52.0021 49.0212 51.7421 48.9057 51.5121 48.7937C51.282 48.6816 51.0865 48.5672 50.9255 48.4506C50.7645 48.3339 50.6403 48.2105 50.5529 48.0801C50.4655 47.9498 50.4218 47.8022 50.4218 47.6376C50.4218 47.4866 50.4609 47.3505 50.5391 47.2294C50.6173 47.1081 50.7277 47.004 50.8703 46.9171C51.013 46.8302 51.1877 46.7628 51.3948 46.7147C51.6018 46.6668 51.8319 46.6427 52.0849 46.6427C52.2689 46.6427 52.4633 46.6564 52.668 46.6839C52.8728 46.7114 53.0787 46.7537 53.2856 46.8108C53.4927 46.868 53.694 46.94 53.8895 47.027C54.0851 47.1139 54.2656 47.2145 54.4313 47.3288V45.2774C54.0953 45.1493 53.7285 45.0543 53.3305 44.9927C52.9326 44.9309 52.4759 44.9 51.9606 44.9C51.4362 44.9 50.9393 44.956 50.4701 45.0681C50.0008 45.1802 49.5879 45.3551 49.2313 45.593C48.8748 45.8309 48.593 46.1339 48.386 46.502C48.1789 46.8703 48.0754 47.3105 48.0754 47.8228C48.0754 48.4769 48.2652 49.035 48.6448 49.4969C49.0244 49.9589 49.6005 50.35 50.3734 50.6702C50.6771 50.7937 50.96 50.9149 51.2223 51.0339C51.4845 51.1527 51.7111 51.2763 51.902 51.4043C52.0929 51.5324 52.2436 51.6719 52.354 51.8228C52.4645 51.9738 52.5197 52.1453 52.5197 52.3374C52.5197 52.4793 52.4851 52.6107 52.4161 52.7319C52.3471 52.8532 52.2424 52.9583 52.1021 53.0475C51.9618 53.1367 51.787 53.2065 51.5777 53.2568C51.3684 53.3071 51.1233 53.3323 50.8427 53.3323C50.3642 53.3323 49.8904 53.2488 49.4211 53.0819C48.9519 52.9149 48.5171 52.6645 48.1168 52.3306V54.5261Z" fill="#FAFAFA"/>
</g>
</g>
<path d="M16 8H76V0H16V8ZM84 16V76H92V16H84ZM76 84H16V92H76V84ZM8 76V16H0V76H8ZM16 84C11.5817 84 8 80.4183 8 76H0C0 84.8366 7.16344 92 16 92V84ZM84 76C84 80.4183 80.4183 84 76 84V92C84.8366 92 92 84.8366 92 76H84ZM76 8C80.4183 8 84 11.5817 84 16H92C92 7.16345 84.8366 0 76 0V8ZM16 0C7.16345 0 0 7.16344 0 16H8C8 11.5817 11.5817 8 16 8V0Z" fill="#09090B" fill-opacity="0.2" mask="url(#path-1-outside-1_2002_12805)"/>
<defs>
<filter id="filter0_dddd_2002_12805" x="-30" y="-30" width="152" height="152" filterUnits="userSpaceOnUse" color-interpolation-filters="sRGB">
<feFlood flood-opacity="0" result="BackgroundImageFix"/>
<feColorMatrix in="SourceAlpha" type="matrix" values="0 0 0 0 0 0 0 0 0 0 0 0 0 0 0 0 0 0 127 0" result="hardAlpha"/>
<feOffset/>
<feGaussianBlur stdDeviation="32"/>
<feColorMatrix type="matrix" values="0 0 0 0 0.309804 0 0 0 0 0.27451 0 0 0 0 0.898039 0 0 0 1 0"/>
<feBlend mode="normal" in2="BackgroundImageFix" result="effect1_dropShadow_2002_12805"/>
<feColorMatrix in="SourceAlpha" type="matrix" values="0 0 0 0 0 0 0 0 0 0 0 0 0 0 0 0 0 0 127 0" result="hardAlpha"/>
<feOffset/>
<feGaussianBlur stdDeviation="24"/>
<feColorMatrix type="matrix" values="0 0 0 0 0.309804 0 0 0 0 0.27451 0 0 0 0 0.898039 0 0 0 1 0"/>
<feBlend mode="normal" in2="effect1_dropShadow_2002_12805" result="effect2_dropShadow_2002_12805"/>
<feColorMatrix in="SourceAlpha" type="matrix" values="0 0 0 0 0 0 0 0 0 0 0 0 0 0 0 0 0 0 127 0" result="hardAlpha"/>
<feOffset/>
<feGaussianBlur stdDeviation="16"/>
<feColorMatrix type="matrix" values="0 0 0 0 0.309804 0 0 0 0 0.27451 0 0 0 0 0.898039 0 0 0 1 0"/>
<feBlend mode="normal" in2="effect2_dropShadow_2002_12805" result="effect3_dropShadow_2002_12805"/>
<feColorMatrix in="SourceAlpha" type="matrix" values="0 0 0 0 0 0 0 0 0 0 0 0 0 0 0 0 0 0 127 0" result="hardAlpha"/>
<feOffset/>
<feGaussianBlur stdDeviation="4"/>
<feColorMatrix type="matrix" values="0 0 0 0 0.654902 0 0 0 0 0.545098 0 0 0 0 0.980392 0 0 0 0.8 0"/>
<feBlend mode="normal" in2="effect3_dropShadow_2002_12805" result="effect4_dropShadow_2002_12805"/>
<feBlend mode="normal" in="SourceGraphic" in2="effect4_dropShadow_2002_12805" result="shape"/>
</filter>
<linearGradient id="paint0_linear_2002_12805" x1="46" y1="88" x2="46" y2="4" gradientUnits="userSpaceOnUse">
<stop stop-color="white" stop-opacity="0"/>
<stop offset="1" stop-color="#FAFAFA" stop-opacity="0.05"/>
</linearGradient>
<clipPath id="clip0_2002_12805">
<path d="M4 16C4 9.37258 9.37258 4 16 4H76C82.6274 4 88 9.37258 88 16V76C88 82.6274 82.6274 88 76 88H16C9.37258 88 4 82.6274 4 76V16Z" fill="white"/>
</clipPath>
</defs>
</svg>
