<svg width="16" height="16" viewBox="0 0 16 16" fill="none" xmlns="http://www.w3.org/2000/svg">
<g clip-path="url(#clip0_2002_12940)">
<path d="M8.99992 4.66671C9.18401 4.66671 9.33325 4.51747 9.33325 4.33337C9.33325 4.14928 9.18401 4.00004 8.99992 4.00004C8.81582 4.00004 8.66659 4.14928 8.66659 4.33337C8.66659 4.51747 8.81582 4.66671 8.99992 4.66671Z" stroke="#A1A1AA" stroke-linecap="round" stroke-linejoin="round"/>
<path d="M11.6666 7.33337C11.8507 7.33337 11.9999 7.18414 11.9999 7.00004C11.9999 6.81595 11.8507 6.66671 11.6666 6.66671C11.4825 6.66671 11.3333 6.81595 11.3333 7.00004C11.3333 7.18414 11.4825 7.33337 11.6666 7.33337Z" stroke="#A1A1AA" stroke-linecap="round" stroke-linejoin="round"/>
<path d="M5.66659 5.33337C5.85068 5.33337 5.99992 5.18414 5.99992 5.00004C5.99992 4.81595 5.85068 4.66671 5.66659 4.66671C5.48249 4.66671 5.33325 4.81595 5.33325 5.00004C5.33325 5.18414 5.48249 5.33337 5.66659 5.33337Z" stroke="#A1A1AA" stroke-linecap="round" stroke-linejoin="round"/>
<path d="M4.33325 8.66671C4.51735 8.66671 4.66659 8.51747 4.66659 8.33337C4.66659 8.14928 4.51735 8.00004 4.33325 8.00004C4.14916 8.00004 3.99992 8.14928 3.99992 8.33337C3.99992 8.51747 4.14916 8.66671 4.33325 8.66671Z" stroke="#A1A1AA" stroke-linecap="round" stroke-linejoin="round"/>
<path d="M7.99992 1.33337C4.33325 1.33337 1.33325 4.33337 1.33325 8.00004C1.33325 11.6667 4.33325 14.6667 7.99992 14.6667C8.61725 14.6667 9.09859 14.1694 9.09859 13.5414C9.09859 13.25 8.97859 12.9847 8.80725 12.7914C8.61392 12.5987 8.51525 12.3567 8.51525 12.0414C8.51272 11.8946 8.53976 11.7489 8.59475 11.6129C8.64974 11.4768 8.73155 11.3532 8.83532 11.2494C8.93909 11.1457 9.06268 11.0639 9.19874 11.0089C9.33479 10.9539 9.48053 10.9268 9.62725 10.9294H10.9579C12.9919 10.9294 14.6613 9.26071 14.6613 7.22671C14.6433 4.00804 11.6406 1.33337 7.99992 1.33337Z" stroke="#A1A1AA" stroke-linecap="round" stroke-linejoin="round"/>
</g>
<defs>
<clipPath id="clip0_2002_12940">
<rect width="16" height="16" fill="white"/>
</clipPath>
</defs>
</svg>
